<svg width="40" height="37" viewBox="0 0 40 37" fill="none" aria-labelledby="title" xmlns="http://www.w3.org/2000/svg">
  <title id="title">Afficher des traductions</title>
  <path d="M21.5818 24.0818L16.9636 19.5181L17.0182 19.4636C20.1818 15.9363 22.4364 11.8818 23.7636 7.59084H29.0909V3.95448H16.3636V0.318115H12.7273V3.95448H0V7.59084H20.3091C19.0909 11.0818 17.1636 14.409 14.5455 17.3181C12.8545 15.4454 11.4545 13.3908 10.3455 11.2272H6.70909C8.03636 14.1908 9.85455 16.9908 12.1273 19.5181L2.87273 28.6454L5.45455 31.2272L14.5455 22.1363L20.2 27.7908L21.5818 24.0818ZM31.8182 14.8636H28.1818L20 36.6818H23.6364L25.6727 31.2272H34.3091L36.3636 36.6818H40L31.8182 14.8636ZM27.0545 27.5908L30 19.7181L32.9455 27.5908H27.0545Z" fill="#FEFFDE"/>
</svg>